<svg width="40" height="41" viewBox="0 0 40 41" fill="none" xmlns="http://www.w3.org/2000/svg">
<path fill-rule="evenodd" clip-rule="evenodd" d="M20 0.773438C8.9543 0.773438 0 9.72774 0 20.7734C0 31.8191 8.9543 40.7734 20 40.7734C31.0457 40.7734 40 31.8191 40 20.7734C40 9.72774 31.0457 0.773438 20 0.773438ZM12.421 9.4401H28.2457C29.5802 9.4401 30.6667 10.5134 30.6667 11.8434V32.7734L28.1276 30.5568L26.6987 29.2501L25.187 27.8618L25.813 30.0201H12.421C11.0865 30.0201 10 28.9468 10 27.6168V11.8434C10 10.5134 11.0865 9.4401 12.421 9.4401Z" fill="#161616"/>
<path fill-rule="evenodd" clip-rule="evenodd" d="M23.6873 24.6768C23.6873 24.6768 23.2621 24.1751 22.9078 23.7318C24.4549 23.3001 25.0453 22.3434 25.0453 22.3434C24.5612 22.6584 24.1006 22.8801 23.6873 23.0318C23.0968 23.2768 22.5299 23.4401 21.9749 23.5334C20.8412 23.7434 19.8019 23.6851 18.9162 23.5218C18.2431 23.3934 17.6644 23.2068 17.1802 23.0201C16.9086 22.9151 16.6134 22.7868 16.3181 22.6234C16.3004 22.6118 16.2827 22.603 16.265 22.5943C16.2473 22.5855 16.2295 22.5768 16.2118 22.5651C16.1882 22.5534 16.1764 22.5418 16.1646 22.5301C15.952 22.4134 15.8339 22.3318 15.8339 22.3318C15.8339 22.3318 16.4008 23.2651 17.9006 23.7084C17.5463 24.1518 17.1094 24.6768 17.1094 24.6768C14.4994 24.5951 13.5074 22.9034 13.5074 22.9034C13.5074 19.1468 15.208 16.1018 15.208 16.1018C16.9086 14.8418 18.5265 14.8768 18.5265 14.8768L18.6446 15.0168C16.5189 15.6234 15.5387 16.5451 15.5387 16.5451C15.5387 16.5451 15.7985 16.4051 16.2354 16.2068C17.4991 15.6584 18.5029 15.5068 18.9162 15.4718L18.9427 15.4674C19.0023 15.4573 19.0551 15.4484 19.117 15.4484C19.8373 15.3551 20.6522 15.3318 21.5025 15.4251C22.6244 15.5534 23.829 15.8801 25.0572 16.5451C25.0572 16.5451 24.1242 15.6701 22.1166 15.0634L22.2819 14.8768C22.2819 14.8768 23.8998 14.8418 25.6004 16.1018C25.6004 16.1018 27.301 19.1468 27.301 22.9034C27.301 22.9034 26.2972 24.5951 23.6873 24.6768ZM18.5284 19.4401C17.8606 19.4401 17.3333 20.0407 17.3333 20.7735C17.3333 21.5062 17.8723 22.1068 18.5284 22.1068C19.1963 22.1068 19.7235 21.5062 19.7235 20.7735C19.7352 20.0407 19.1963 19.4401 18.5284 19.4401ZM21.6099 20.7735C21.6099 20.0407 22.1371 19.4401 22.8049 19.4401C23.4728 19.4401 24 20.0407 24 20.7735C24 21.5062 23.4728 22.1068 22.8049 22.1068C22.1488 22.1068 21.6099 21.5062 21.6099 20.7735Z" fill="#161616"/>
</svg>
