<svg width="40" height="41" viewBox="0 0 40 41" fill="none" xmlns="http://www.w3.org/2000/svg">
<path d="M20.036 0.923401C9.01223 0.923401 0.0730591 10.0133 0.0730591 21.2272C0.0730591 30.1981 5.79306 37.8089 13.725 40.4937C14.7226 40.6817 15.0889 40.0533 15.0889 39.517C15.0889 39.0328 15.0704 37.4334 15.0618 35.7368C9.5081 36.965 8.3362 33.3412 8.3362 33.3412C7.4281 30.9943 6.11967 30.3702 6.11967 30.3702C4.30843 29.1101 6.2562 29.1359 6.2562 29.1359C8.26083 29.2788 9.31636 31.2283 9.31636 31.2283C11.0969 34.3324 13.9864 33.435 15.1256 32.9162C15.3048 31.6042 15.8221 30.7078 16.3931 30.2011C11.959 29.6877 7.29785 27.9467 7.29785 20.1667C7.29785 17.95 8.07769 16.1387 9.35471 14.7168C9.14744 14.2051 8.46413 12.1403 9.5481 9.34356C9.5481 9.34356 11.2245 8.79786 15.0393 11.4248C16.6317 10.9749 18.3395 10.7493 20.036 10.7416C21.7326 10.7493 23.4417 10.9749 25.037 11.4248C28.8473 8.79786 30.5213 9.34356 30.5213 9.34356C31.6079 12.1403 30.9243 14.2051 30.717 14.7168C31.997 16.1387 32.7716 17.95 32.7716 20.1667C32.7716 27.9652 28.1015 29.6823 23.6562 30.185C24.3722 30.8151 25.0102 32.0507 25.0102 33.945C25.0102 36.6614 24.9871 38.8479 24.9871 39.517C24.9871 40.0573 25.3464 40.6904 26.3583 40.491C34.2859 37.8032 39.9987 30.1951 39.9987 21.2272C39.9987 10.0133 31.0608 0.923401 20.036 0.923401Z" fill="#161616"/>
<path d="M7.63406 30.0754C7.59009 30.1766 7.43406 30.2065 7.29191 30.1372C7.14712 30.071 7.0658 29.9335 7.11274 29.8323C7.15571 29.7284 7.31208 29.6998 7.45654 29.7687C7.60166 29.8353 7.68431 29.9742 7.63406 30.0754Z" fill="#161616"/>
<path d="M8.44264 30.9926C8.34743 31.0824 8.16132 31.0407 8.03504 30.8988C7.90446 30.7572 7.88 30.5679 7.97653 30.4768C8.07471 30.387 8.2552 30.4291 8.38611 30.5706C8.51669 30.7139 8.54215 30.9018 8.44264 30.9926Z" fill="#161616"/>
<path d="M9.22974 32.162C9.10743 32.2484 8.90743 32.1674 8.78379 31.9868C8.66148 31.8063 8.66148 31.5897 8.78644 31.503C8.9104 31.4162 9.10743 31.4942 9.23272 31.6735C9.3547 31.8567 9.3547 32.0736 9.22974 32.162Z" fill="#161616"/>
<path d="M10.3081 33.2917C10.1987 33.4144 9.96561 33.3815 9.79504 33.214C9.62049 33.0503 9.5719 32.818 9.68165 32.6952C9.79239 32.5722 10.0268 32.6068 10.1987 32.7729C10.3719 32.9363 10.4248 33.1703 10.3081 33.2917Z" fill="#161616"/>
<path d="M11.7957 33.9477C11.7474 34.1067 11.523 34.179 11.2968 34.1114C11.0711 34.0418 10.9233 33.8556 10.9689 33.6948C11.0158 33.5348 11.2413 33.4595 11.4691 33.5318C11.6945 33.601 11.8426 33.786 11.7957 33.9477Z" fill="#161616"/>
<path d="M13.4294 34.0694C13.4351 34.2369 13.2433 34.3757 13.006 34.3784C12.7673 34.3841 12.5742 34.2486 12.5716 34.0839C12.5716 33.9148 12.759 33.7773 12.9977 33.7732C13.2351 33.7685 13.4294 33.903 13.4294 34.0694Z" fill="#161616"/>
<path d="M14.9498 33.8062C14.9782 33.9696 14.8132 34.1373 14.5775 34.1817C14.3458 34.2251 14.1313 34.1242 14.1018 33.9622C14.0731 33.7947 14.241 33.627 14.4724 33.5836C14.7085 33.5419 14.9197 33.6401 14.9498 33.8062Z" fill="#161616"/>
</svg>
