<svg width="50px" height="40px" viewBox="0 0 49 48" fill="none" xmlns="http://www.w3.org/2000/svg">
<path fill-rule="evenodd" clip-rule="evenodd" d="M48.269 24C48.269 37.2548 37.5239 48 24.269 48C11.0142 48 0.269043 37.2548 0.269043 24C0.269043 10.7452 11.0142 0 24.269 0C37.5239 0 48.269 10.7452 48.269 24ZM11.6603 15.234C11.9536 15.5046 12.1034 15.9019 12.0636 16.3039V30.779C12.1507 31.3011 11.9898 31.8345 11.6304 32.2158L8.26904 36.3886V36.9389H17.8003V36.3886L14.439 32.2158C14.0769 31.8351 13.9061 31.3053 13.9759 30.779V18.2604L22.3419 36.9389H23.3129L30.4987 18.2604V33.1481C30.4987 33.5456 30.4987 33.622 30.2448 33.8818L27.6603 36.4497V37H40.2093V36.4497L37.7144 33.943C37.4942 33.7712 37.3849 33.4888 37.4306 33.2093V14.7907C37.3849 14.5112 37.4942 14.2288 37.7144 14.057L40.269 11.5503V11H31.425L25.1206 27.0952L17.9497 11H8.6724V11.5503L11.6603 15.234Z" fill="black"/>
</svg>
