<svg width="40" height="41" viewBox="0 0 40 41" fill="none" xmlns="http://www.w3.org/2000/svg">
<path fill-rule="evenodd" clip-rule="evenodd" d="M0 20.7734C0 31.8191 8.9543 40.7734 20 40.7734C31.0457 40.7734 40 31.8191 40 20.7734C40 9.72774 31.0457 0.773438 20 0.773438C8.9543 0.773438 0 9.72774 0 20.7734ZM16.3333 29.9401L16.6736 24.842L16.6733 24.8418L25.9474 16.4726C26.3545 16.1114 25.8585 15.9352 25.3182 16.2629L13.8727 23.4837L8.9289 21.9407C7.86125 21.6138 7.85358 20.8801 9.1686 20.3527L28.4336 12.9242C29.3135 12.5247 30.1627 13.1355 29.8268 14.4822L26.546 29.9427C26.3169 31.0413 25.6531 31.3041 24.7333 30.7966L19.7356 27.1042L17.3333 29.4401C17.3258 29.4475 17.3182 29.4548 17.3107 29.4621C17.042 29.7237 16.8198 29.9401 16.3333 29.9401Z" fill="#161616"/>
</svg>
