<svg width="40" height="41" viewBox="0 0 40 41" fill="none" xmlns="http://www.w3.org/2000/svg">
<path fill-rule="evenodd" clip-rule="evenodd" d="M20 0.773438C8.9543 0.773438 0 9.72774 0 20.7734C0 31.8191 8.9543 40.7734 20 40.7734C31.0457 40.7734 40 31.8191 40 20.7734C40 9.72774 31.0457 0.773438 20 0.773438ZM19.443 17.7217L19.401 17.0297C19.2751 15.236 20.3803 13.5977 22.129 12.9622C22.7725 12.7362 23.8637 12.7079 24.5771 12.9057C24.8569 12.9904 25.3885 13.2729 25.7663 13.5271L26.4518 13.9932L27.2072 13.7531C27.6269 13.626 28.1865 13.4141 28.4383 13.2729C28.6761 13.1458 28.8859 13.0751 28.8859 13.1175C28.8859 13.3576 28.3683 14.1768 27.9346 14.6287C27.3471 15.2643 27.515 15.3208 28.7041 14.8971C29.4175 14.657 29.4315 14.657 29.2916 14.9253C29.2077 15.0665 28.774 15.5609 28.3124 16.0128C27.5289 16.7896 27.487 16.8743 27.487 17.524C27.487 18.5268 27.0113 20.617 26.5357 21.761C25.6543 23.9078 23.7658 26.1251 21.8772 27.2409C19.2191 28.8086 15.6798 29.204 12.7 28.286C11.7067 27.9753 10 27.1844 10 27.0432C10 27.0008 10.5176 26.9443 11.1471 26.9302C12.4622 26.9019 13.7772 26.5347 14.8964 25.885L15.6518 25.4331L14.7844 25.1365C13.5534 24.7128 12.4482 23.7383 12.1684 22.8203C12.0844 22.5237 12.1124 22.5096 12.8958 22.5096L13.7072 22.4954L13.0218 22.1706C12.2104 21.761 11.4689 21.069 11.1052 20.3628C10.8394 19.8544 10.5036 18.5691 10.6016 18.4703C10.6295 18.4279 10.9233 18.5126 11.2591 18.6256C12.2243 18.9787 12.3503 18.894 11.7907 18.3008C10.7414 17.2274 10.4197 15.6315 10.9233 14.1203L11.1611 13.4423L12.0844 14.3604C13.973 16.2105 16.1974 17.3122 18.7435 17.637L19.443 17.7217Z" fill="#161616"/>
</svg>
